<?xml version="1.0" standalone="no"?>
<!DOCTYPE svg PUBLIC "-//W3C//DTD SVG 20010904//EN"
 "http://www.w3.org/TR/2001/REC-SVG-20010904/DTD/svg10.dtd">
<svg version="1.0" xmlns="http://www.w3.org/2000/svg"
 width="172.000000pt" height="172.000000pt" viewBox="0 0 172.000000 172.000000"
 preserveAspectRatio="xMidYMid meet">
<metadata>
Created by potrace 1.14, written by Peter Selinger 2001-2017
</metadata>
<g transform="translate(0.000000,172.000000) scale(0.100000,-0.100000)"
fill="#000000" stroke="none">
<path d="M453 1496 c-22 -33 -77 -124 -124 -201 -46 -77 -89 -149 -96 -160 -7
-11 -20 -35 -29 -52 -10 -18 -21 -33 -26 -33 -4 0 -8 -4 -8 -9 0 -5 -20 -41
-43 -81 -43 -71 -44 -72 -28 -106 8 -19 19 -34 23 -34 4 0 8 -4 8 -9 0 -9 130
-226 148 -247 5 -6 13 -20 16 -32 4 -12 12 -22 17 -22 5 0 9 -5 9 -10 0 -6 12
-29 27 -53 14 -23 25 -44 24 -46 -2 -2 1 -7 6 -10 9 -6 76 -113 98 -156 10
-19 22 -20 379 -23 361 -2 408 1 390 29 -3 5 -1 9 4 9 5 0 17 15 26 33 10 17
30 52 46 77 16 25 35 56 43 70 14 25 88 147 113 187 8 13 14 26 13 29 0 4 3
10 8 13 5 3 39 55 76 116 l66 109 -27 47 c-14 26 -29 46 -32 44 -4 -2 -7 1 -7
8 0 7 -24 52 -54 100 -30 48 -58 95 -64 105 -47 82 -109 178 -117 183 -5 3 -8
8 -7 10 3 3 -32 66 -74 134 -28 44 -18 43 -399 43 l-366 0 -39 -62z"/>
</g>
</svg>
