<svg width="11" height="16" viewBox="0 0 11 16" fill="none" xmlns="http://www.w3.org/2000/svg">
<path d="M0.000345281 5.86492C0.492371 5.72347 0.964369 5.59133 1.43395 5.45161C1.9277 5.30429 2.42145 5.15595 2.91106 4.99621C3.49804 4.80508 3.89166 4.40799 4.08467 3.82356C4.25697 3.30261 4.41545 2.77718 4.57601 2.25244C4.70411 1.83257 4.82599 1.41064 4.95789 0.963867C4.97688 1.01907 4.98862 1.04908 4.99794 1.08013C5.21927 1.82498 5.43507 2.57122 5.66468 3.31365C5.74927 3.58724 5.85355 3.85634 5.97163 4.1175C6.17017 4.55703 6.53064 4.82889 6.97605 4.98C7.47706 5.15008 7.98531 5.29946 8.49184 5.4523C8.9369 5.58616 9.38439 5.71243 9.83049 5.84215C9.85363 5.84905 9.87641 5.85733 9.91957 5.87182C9.75315 5.92184 9.60571 5.96738 9.45759 6.01085C8.76012 6.2144 8.05955 6.40864 7.36622 6.62529C7.0938 6.71051 6.82862 6.82884 6.57518 6.96132C6.25545 7.12865 6.04207 7.40913 5.91846 7.74137C5.74996 8.19435 5.60253 8.65561 5.45785 9.11722C5.29661 9.63299 5.14883 10.1529 4.99483 10.6711C4.98689 10.6977 4.97653 10.7235 4.95961 10.7715C4.91714 10.6338 4.8802 10.5162 4.84498 10.3982C4.62504 9.66197 4.40924 8.92437 4.18377 8.18986C4.09192 7.89075 3.9728 7.6013 3.78428 7.346C3.56779 7.05344 3.26946 6.87128 2.93385 6.75881C2.41075 6.58355 1.88109 6.42761 1.35247 6.26788C0.926389 6.13919 0.49824 6.01775 0.0711279 5.89286C0.0552449 5.88838 0.0400526 5.88113 0 5.86526L0.000345281 5.86492Z" fill="#C37D16"/>
<path d="M10.9999 11.7922C10.801 11.8508 10.6017 11.9088 10.4029 11.9688C9.93915 12.1085 9.47406 12.2445 9.01207 12.3907C8.58323 12.5263 8.30183 12.8185 8.16717 13.2453C8.01041 13.7418 7.86229 14.241 7.71071 14.7391C7.66479 14.8896 7.6199 15.04 7.55878 15.1908C7.47937 14.9251 7.40168 14.6588 7.32019 14.3938C7.19935 14.0012 7.08022 13.6076 6.95213 13.2174C6.81608 12.8037 6.53572 12.5256 6.12138 12.3921C5.71913 12.2627 5.31377 12.1434 4.90944 12.0212C4.67741 11.9512 4.44435 11.885 4.21198 11.8167C4.18366 11.8084 4.15639 11.7973 4.12842 11.7711C4.30796 11.7183 4.48751 11.6656 4.66706 11.6131C5.10487 11.4844 5.54165 11.3513 5.9812 11.2288C6.52778 11.0763 6.86097 10.7227 7.01738 10.1831C7.18588 9.60177 7.36543 9.02356 7.54014 8.44396C7.5467 8.42257 7.55395 8.40152 7.56811 8.3584C7.61921 8.5271 7.66479 8.67614 7.70933 8.82518C7.84399 9.27575 7.98693 9.7239 8.11089 10.1772C8.27213 10.7668 8.66057 11.1032 9.23823 11.2602C9.80104 11.413 10.3587 11.5845 10.9184 11.7477C10.9453 11.7556 10.9719 11.7642 10.9985 11.7725C10.9985 11.7791 10.9988 11.7856 10.9992 11.7918L10.9999 11.7922Z" fill="#C37D16"/>
<path d="M8.58705 4.59124C8.49278 4.27315 8.40059 3.95403 8.30357 3.63663C8.25834 3.48897 8.20724 3.34235 8.1513 3.19814C8.06671 2.97872 7.91409 2.81829 7.69139 2.74274C7.37166 2.63441 7.04675 2.54023 6.72391 2.44121C6.60272 2.40395 6.48014 2.37118 6.3586 2.3353C6.32994 2.32702 6.30232 2.31598 6.27539 2.2901C6.57233 2.20454 6.86996 2.1214 7.16587 2.03273C7.33575 1.98202 7.50425 1.92613 7.67102 1.86575C7.90374 1.78123 8.07396 1.62391 8.15406 1.38896C8.26766 1.05639 8.36814 0.718977 8.47345 0.383638C8.5135 0.255989 8.55217 0.127305 8.60707 0C8.69754 0.310499 8.78593 0.621688 8.8795 0.931496C8.92646 1.08744 8.9786 1.24269 9.03626 1.39483C9.12327 1.62356 9.28486 1.78502 9.51585 1.86437C9.7793 1.95511 10.0465 2.0348 10.3135 2.11588C10.5127 2.1766 10.7133 2.23249 10.9332 2.29631C10.8963 2.3108 10.8776 2.31943 10.8583 2.32529C10.445 2.44777 10.0317 2.56921 9.6184 2.69168C9.29556 2.78724 9.08632 2.99769 8.9893 3.31923C8.87294 3.7046 8.75727 4.08996 8.64126 4.47532C8.62917 4.51569 8.61605 4.55536 8.60362 4.59573C8.5981 4.594 8.59257 4.59228 8.58705 4.59055V4.59124Z" fill="#C37D16"/>
</svg>
