<svg width="37" height="37" viewBox="0 0 37 37" fill="none" xmlns="http://www.w3.org/2000/svg">
<path d="M32.375 17.7292C32.3803 19.764 31.9049 21.7713 30.9875 23.5875C29.8998 25.764 28.2275 27.5946 26.1582 28.8743C24.0888 30.1541 21.704 30.8324 19.2708 30.8333C17.236 30.8387 15.2288 30.3632 13.4125 29.4458L4.625 32.375L7.55417 23.5875C6.63677 21.7713 6.16136 19.764 6.16667 17.7292C6.16761 15.2961 6.84594 12.9112 8.12569 10.8419C9.40544 8.77248 11.2361 7.10026 13.4125 6.01251C15.2288 5.09512 17.236 4.61971 19.2708 4.62501H20.0417C23.255 4.80229 26.2901 6.1586 28.5658 8.43425C30.8414 10.7099 32.1977 13.745 32.375 16.9583V17.7292Z" stroke="#0B192E" stroke-width="2" stroke-linecap="round" stroke-linejoin="round"/>
</svg>
